<svg width="50" height="50" viewBox="0 0 50 50" fill="none" xmlns="http://www.w3.org/2000/svg">
<g clip-path="url(#clip0_73_13)">
<path d="M42.6817 7.31821C37.9624 2.5991 31.6829 0 25 0C18.3171 0 12.0376 2.5991 7.31833 7.31821C2.5991 12.0376 0 18.3171 0 25C0 31.6829 2.5991 37.9624 7.31833 42.6818C12.0376 47.4009 18.3171 50 25 50C31.6829 50 37.9624 47.4009 42.6817 42.6818C47.4009 37.9624 50 31.6829 50 25C50 18.3171 47.4009 12.0376 42.6817 7.31821ZM41.8502 40.2503L37.8275 36.2277C40.3063 33.4031 41.762 29.8856 42.0059 26.1312H47.7093C47.4425 31.5495 45.2704 36.475 41.8502 40.2503ZM2.29072 26.1312H7.99412C8.23801 29.8856 9.69378 33.4031 12.1725 36.2277L8.14977 40.2503C4.72964 36.475 2.55747 31.5495 2.29072 26.1312ZM8.14977 9.74966L12.1725 13.7723C9.69367 16.5969 8.23801 20.1144 7.994 23.8688H2.29072C2.55747 18.4505 4.72964 13.525 8.14977 9.74966ZM25 39.7813C16.8495 39.7813 10.2187 33.1505 10.2187 25C10.2187 16.8495 16.8495 10.2187 25 10.2187C33.1505 10.2187 39.7813 16.8495 39.7813 25C39.7813 33.1505 33.1505 39.7813 25 39.7813ZM36.2277 12.1725C33.4031 9.69367 29.8856 8.2379 26.1312 7.994V2.29072C31.5495 2.55747 36.4751 4.72975 40.2505 8.14989L36.2277 12.1725ZM23.8688 7.994C20.1144 8.2379 16.5969 9.69367 13.7723 12.1725L9.74955 8.14989C13.5249 4.72964 18.4505 2.55747 23.8688 2.29072V7.994ZM13.7723 37.8275C16.5969 40.3063 20.1144 41.762 23.8688 42.006V47.7093C18.4505 47.4425 13.5249 45.2702 9.74955 41.8501L13.7723 37.8275ZM26.1312 42.006C29.8856 41.7621 33.4031 40.3063 36.2277 37.8275L40.2505 41.8501C36.4751 45.2704 31.5495 47.4425 26.1312 47.7093V42.006ZM42.006 23.8688C41.7621 20.1144 40.3063 16.5969 37.8276 13.7723L41.8503 9.74966C45.2704 13.525 47.4425 18.4505 47.7093 23.8688H42.006Z" fill="#202220"/>
<path d="M25 15.9126C19.9892 15.9126 15.9126 19.9892 15.9126 25C15.9126 30.0109 19.9893 34.0875 25 34.0875C30.0108 34.0875 34.0875 30.0109 34.0875 25C34.0875 19.9892 30.0109 15.9126 25 15.9126ZM25 31.825C21.2367 31.825 18.175 28.7634 18.175 25C18.175 21.2367 21.2367 18.175 25 18.175C28.7634 18.175 31.825 21.2367 31.825 25C31.825 28.7634 28.7634 31.825 25 31.825Z" fill="#202220"/>
</g>
<defs>
<clipPath id="clip0_73_13">
<rect width="50" height="50" fill="white"/>
</clipPath>
</defs>
</svg>
