<svg width="50" height="50" viewBox="0 0 50 50" fill="none" xmlns="http://www.w3.org/2000/svg">
<path d="M18.7184 0C18.3243 0 17.9587 0.20509 17.7532 0.541403C17.1508 1.52704 3.00101 24.7909 3.00101 34.2827C3.00101 42.9492 10.0518 50 18.7184 50C27.3851 50 34.4357 42.9492 34.4357 34.2827C34.4357 24.7909 20.286 1.52704 19.6836 0.541403C19.4782 0.20509 19.1126 0 18.7184 0ZM18.7184 47.7376C11.2994 47.7376 5.26357 41.7017 5.26357 34.2827C5.26357 26.7856 15.4873 8.82738 18.7184 3.33959C21.9495 8.82738 32.1733 26.7856 32.1733 34.2827C32.1733 41.7017 26.1376 47.7376 18.7184 47.7376Z" fill="#202220"/>
<path d="M10.933 24.5618C10.632 25.2781 10.35 25.9768 10.0948 26.6388C8.35181 31.1609 8.09151 33.369 8.09151 34.2828C8.09151 40.1424 12.8587 44.9096 18.7183 44.9096C24.5779 44.9096 29.3451 40.1424 29.3451 34.2828C29.3451 33.3665 29.0835 31.1516 27.3316 26.6123C27.0783 25.956 26.7997 25.2662 26.5037 24.562C26.3271 24.1422 25.9163 23.8691 25.4609 23.8691L11.9759 23.8689C11.5206 23.8689 11.1095 24.142 10.933 24.5618ZM12.7313 26.1313L24.7055 26.1316C24.8868 26.5743 25.0593 27.0079 25.221 27.4269C26.9485 31.9029 27.0828 33.8061 27.0828 34.2827C27.0828 38.8948 23.3305 42.6471 18.7184 42.6471C14.1063 42.6471 10.3541 38.8948 10.3541 34.2827C10.3541 33.8075 10.4877 31.9105 12.206 27.4525C12.3701 27.0265 12.546 26.5842 12.7313 26.1313Z" fill="#202220"/>
<path d="M45.8678 0H38.7828C38.1581 0 37.6516 0.506448 37.6516 1.13122C37.6516 1.756 38.1581 2.26244 38.7828 2.26244H44.7365V7.95622H41.1584C40.5337 7.95622 40.0271 8.46267 40.0271 9.08744C40.0271 9.71222 40.5337 10.2187 41.1584 10.2187H44.7365V15.9124H41.1584C40.5337 15.9124 40.0271 16.4189 40.0271 17.0437C40.0271 17.6684 40.5337 18.1749 41.1584 18.1749H44.7365V23.8688H38.7828C38.1581 23.8688 37.6516 24.3752 37.6516 25C37.6516 25.6248 38.1581 26.1312 38.7828 26.1312H44.7365V31.825H41.1584C40.5337 31.825 40.0271 32.3314 40.0271 32.9562C40.0271 33.581 40.5337 34.0874 41.1584 34.0874H44.7365V39.7812H41.1584C40.5337 39.7812 40.0271 40.2877 40.0271 40.9124C40.0271 41.5372 40.5337 42.0437 41.1584 42.0437H44.7365V47.7376H38.7828C38.1581 47.7376 37.6516 48.244 37.6516 48.8688C37.6516 49.4936 38.1581 50 38.7828 50H45.8678C46.4924 50 46.999 49.4936 46.999 48.8688V1.13122C46.999 0.506448 46.4924 0 45.8678 0Z" fill="#202220"/>
</svg>
