<svg width="50" height="50" viewBox="0 0 50 50" fill="none" xmlns="http://www.w3.org/2000/svg">
<path d="M15.3398 12.6672C17.8733 13.3526 21.3041 13.7301 25 13.7301C28.6959 13.7301 32.1267 13.3526 34.6602 12.6672C37.7667 11.8268 39.3419 10.5789 39.3419 8.95783C39.3419 7.3369 37.7667 6.08883 34.6602 5.24844C32.1266 4.56304 28.6959 4.18555 25 4.18555C21.3041 4.18555 17.8734 4.56304 15.3398 5.24844C12.2333 6.08883 10.6581 7.3369 10.6581 8.95783C10.6581 10.5788 12.2333 11.8267 15.3398 12.6672ZM15.9307 7.43238C18.277 6.79754 21.498 6.44799 25 6.44799C28.502 6.44799 31.723 6.79754 34.0693 7.43238C36.5561 8.10512 37.0794 8.84086 37.0794 8.95783C37.0794 9.0748 36.5562 9.81055 34.0693 10.4833C31.723 11.118 28.502 11.4677 25 11.4677C21.498 11.4677 18.277 11.1181 15.9307 10.4833C13.4439 9.81055 12.9206 9.0748 12.9206 8.95783C12.9206 8.84086 13.4438 8.105 15.9307 7.43238Z" fill="black"/>
<path d="M38.2473 2.38518C34.6902 0.847059 29.9855 0 25 0C20.0145 0 15.3098 0.847059 11.7527 2.38518C7.89423 4.05373 5.76923 6.3879 5.76923 8.9578V37.5204C5.76923 40.9553 7.84027 44.1455 11.6008 46.5034C15.1971 48.7581 19.9557 50 25 50C30.0443 50 34.8029 48.7581 38.3992 46.5033C42.1597 44.1455 44.2308 40.9552 44.2308 37.5202V8.9578C44.2308 6.3879 42.1058 4.05373 38.2473 2.38518ZM12.6507 4.46188C15.9307 3.04355 20.3164 2.26244 25 2.26244C29.6836 2.26244 34.0693 3.04355 37.3493 4.46188C40.2847 5.73122 41.9683 7.3698 41.9683 8.9578C41.9683 10.6149 40.1628 12.3049 37.0147 13.5941C36.5898 13.7681 36.3122 14.1818 36.3122 14.641V28.2044C36.3122 28.5787 36.0078 28.8831 35.6335 28.8831C35.2592 28.8831 34.9547 28.5787 34.9547 28.2044V15.7923C34.9547 15.4455 34.7957 15.1179 34.5231 14.9034C34.2504 14.6889 33.8945 14.6112 33.5576 14.6929C32.4506 14.9606 31.2733 15.1762 30.0583 15.3337C29.4945 15.4068 29.0724 15.887 29.0724 16.4555V38.3855C29.0724 38.7598 28.768 39.0643 28.3937 39.0643C28.0193 39.0643 27.7149 38.7598 27.7149 38.3855V16.7543C27.7149 16.4469 27.5899 16.1528 27.3684 15.9396C27.1572 15.7362 26.8759 15.6231 26.5837 15.6231C26.5696 15.6231 26.5554 15.6233 26.5413 15.6239C26.0212 15.6433 25.5025 15.6533 25 15.6533C20.3164 15.6533 15.9307 14.8722 12.6507 13.4538C9.71527 12.1843 8.03167 10.5457 8.03167 8.9578C8.03167 7.36991 9.71527 5.73122 12.6507 4.46188ZM37.1974 44.5865C33.9566 46.6184 29.6248 47.7376 25 47.7376C20.3752 47.7376 16.0434 46.6184 12.8026 44.5865C9.72601 42.6575 8.03167 40.148 8.03167 37.5202V13.2802C8.9888 14.1155 10.2362 14.8744 11.7527 15.5302C15.3098 17.0684 20.0145 17.9155 25 17.9155C25.1497 17.9155 25.3006 17.9147 25.4525 17.913V38.3854C25.4525 40.0071 26.7719 41.3266 28.3937 41.3266C30.0154 41.3266 31.3348 40.0071 31.3348 38.3854V17.4363C31.794 17.3645 32.2468 17.2846 32.6923 17.1972V28.2044C32.6923 29.8261 34.0118 31.1456 35.6335 31.1456C37.2552 31.1456 38.5747 29.8261 38.5747 28.2044V15.385C39.9442 14.7638 41.0814 14.0574 41.9683 13.285V37.5201C41.9683 40.148 40.274 42.6575 37.1974 44.5865Z" fill="black"/>
</svg>
