<svg width="35" height="35" viewBox="0 0 35 35" fill="none" xmlns="http://www.w3.org/2000/svg">
<path d="M5.38708 7.3297C5.38708 8.40092 6.2586 9.27252 7.3299 9.27252C8.4012 9.27252 9.27264 8.401 9.27264 7.3297C9.27264 6.2584 8.40112 5.38696 7.3299 5.38696C6.25868 5.38696 5.38708 6.25848 5.38708 7.3297ZM7.68893 7.3297C7.68893 7.52774 7.52787 7.68881 7.3299 7.68881C7.13194 7.68881 6.9708 7.52774 6.9708 7.3297C6.9708 7.13174 7.13186 6.97067 7.3299 6.97067C7.52787 6.97067 7.68893 7.13174 7.68893 7.3297Z" fill="#60AC45"/>
<path d="M4.27731 7.32992C4.27731 5.64667 5.64667 4.27731 7.32992 4.27731C7.76726 4.27731 8.12177 3.92272 8.12177 3.48546C8.12177 3.0482 7.76726 2.6936 7.32992 2.6936C4.77341 2.6936 2.6936 4.77349 2.6936 7.32992C2.6936 7.76718 3.04812 8.12177 3.48546 8.12177C3.9228 8.12177 4.27731 7.76726 4.27731 7.32992Z" fill="#60AC45"/>
<path d="M9.2138 4.92775C9.95648 5.51127 10.3824 6.38683 10.3824 7.32985C10.3824 9.01309 9.01307 10.3825 7.32982 10.3825C6.89248 10.3825 6.53796 10.7371 6.53796 11.1744C6.53796 11.6116 6.89248 11.9662 7.32982 11.9662C9.88632 11.9662 11.9661 9.88635 11.9661 7.32985C11.9661 5.89762 11.3196 4.56817 10.1922 3.6824C9.84831 3.41214 9.35055 3.47209 9.08029 3.81591C8.81019 4.15981 8.86998 4.65757 9.2138 4.92775Z" fill="#60AC45"/>
<path d="M35 0.791855C35 0.354593 34.6455 0 34.2081 0H7.32989C3.28818 0 0 3.2881 0 7.32981C0 7.33765 0.000237557 7.34541 0.000316742 7.35325C0.000316742 7.35523 0 7.35713 0 7.35919V27.6702C0 31.7119 3.28818 35 7.32989 35C11.104 35 14.2207 32.1327 14.6169 28.462H27.8983C27.925 28.462 27.9515 28.4607 27.9778 28.458C28.1387 28.4419 28.2855 28.3777 28.4034 28.2799C28.4101 28.2744 28.4163 28.268 28.4229 28.2622C28.4356 28.2509 28.4485 28.2396 28.4605 28.2275C28.4613 28.2267 28.4621 28.226 28.463 28.2252L34.7661 21.8129C34.7677 21.8113 34.7693 21.8097 34.7708 21.8081L34.7729 21.806C34.7757 21.8031 34.7781 21.7999 34.7809 21.797C34.7955 21.7817 34.8098 21.766 34.8231 21.7496C34.8266 21.7453 34.8297 21.7407 34.8331 21.7363C34.8454 21.7205 34.8575 21.7044 34.8686 21.6876C34.8714 21.6834 34.8738 21.6789 34.8766 21.6746C34.8876 21.6572 34.8983 21.6396 34.908 21.6214C34.9098 21.6179 34.9113 21.6142 34.9131 21.6108C34.923 21.5915 34.9324 21.572 34.9406 21.5518C34.9419 21.5488 34.9427 21.5457 34.9439 21.5427C34.9521 21.5221 34.9598 21.5012 34.9662 21.4797C34.9673 21.4761 34.968 21.4723 34.969 21.4685C34.975 21.4479 34.9804 21.427 34.9847 21.4056C34.9861 21.3984 34.9868 21.3911 34.988 21.3839C34.9911 21.3658 34.9942 21.3479 34.996 21.3295C34.9984 21.3061 34.9994 21.2824 34.9996 21.2586C34.9996 21.2562 35 21.2537 35 21.2513V21.2511V0.791855ZM33.4163 1.58371V20.4593H27.8982C27.4609 20.4593 27.1064 20.8139 27.1064 21.2512V26.8783H14.6597V7.35919C14.6597 7.35721 14.6594 7.35531 14.6594 7.35333C14.6594 7.34549 14.6597 7.33773 14.6597 7.32989C14.6597 5.00381 13.5703 2.92749 11.8752 1.58379L33.4163 1.58371ZM32.3192 22.043L28.6901 25.7351V22.043H32.3192ZM7.32989 1.58371C10.4983 1.58371 13.076 4.16144 13.076 7.32981C13.076 10.4983 10.4983 13.076 7.32989 13.076C4.16144 13.0761 1.58371 10.4983 1.58371 7.32981C1.58371 4.16144 4.16144 1.58371 7.32989 1.58371ZM7.32989 33.4163C4.16144 33.4163 1.58371 30.8386 1.58371 27.6702V11.8753C2.92741 13.5704 5.00373 14.6598 7.32989 14.6598C9.65596 14.6598 11.7323 13.5704 13.076 11.8753V27.6702C13.076 30.8386 10.4983 33.4163 7.32989 33.4163Z" fill="#60AC45"/>
</svg>
