<svg width="31" height="35" viewBox="0 0 31 35" fill="none" xmlns="http://www.w3.org/2000/svg">
<path d="M29.6823 9.02148H28.8909C28.4536 9.02148 28.0991 9.37608 28.0991 9.81334C28.0991 10.2505 28.4534 10.605 28.8904 10.6052V33.4162H11.1311C11.1309 32.9791 10.7764 32.6249 10.3392 32.6249C9.90198 32.6249 9.54739 32.9795 9.54739 33.4167V34.2081C9.54739 34.6454 9.90198 35 10.3392 35H29.6822C30.1195 35 30.4741 34.6454 30.4741 34.2081V9.81334C30.4741 9.376 30.1195 9.02148 29.6823 9.02148Z" fill="#60AC45"/>
<path d="M27.4669 31.201V6.80626C27.4669 6.369 27.1123 6.0144 26.6751 6.0144H25.8838C25.4465 6.0144 25.0919 6.369 25.0919 6.80626C25.0919 7.24344 25.4462 7.5978 25.8832 7.59811V30.4092H8.12395C8.12363 29.9721 7.76928 29.6179 7.33209 29.6179C6.89483 29.6179 6.54024 29.9725 6.54024 30.4097V31.201C6.54024 31.6383 6.89483 31.9929 7.33209 31.9929H26.6751C27.1123 31.9929 27.4669 31.6384 27.4669 31.201Z" fill="#60AC45"/>
<path d="M24.4598 28.1939V3.79918C24.4598 3.36192 24.1052 3.00732 23.6679 3.00732H21.0439C20.6066 3.00732 20.252 3.36192 20.252 3.79918C20.252 4.23644 20.6066 4.59103 21.0439 4.59103H22.8761V27.4021H5.1168C5.11656 26.9649 4.76213 26.6107 4.32494 26.6107C3.88768 26.6107 3.53309 26.9653 3.53309 27.4026V28.1939C3.53309 28.6312 3.88768 28.9858 4.32494 28.9858H23.6679C24.1052 28.9858 24.4598 28.6312 24.4598 28.1939Z" fill="#60AC45"/>
<path d="M21.4526 25.1866V6.58119C21.4526 6.55466 21.4513 6.52829 21.4487 6.50216C21.4468 6.483 21.4434 6.46423 21.4402 6.44546C21.439 6.43881 21.4384 6.432 21.4371 6.42535C21.4326 6.4027 21.4267 6.38053 21.4203 6.3586C21.4195 6.3559 21.419 6.35313 21.4182 6.35052C21.4114 6.32827 21.4034 6.30649 21.3948 6.28511C21.3939 6.28266 21.3931 6.28012 21.3921 6.27775C21.3837 6.25756 21.3742 6.23808 21.3642 6.21876C21.3623 6.21503 21.3608 6.21123 21.3589 6.20759C21.3496 6.19025 21.3392 6.1737 21.3287 6.15715C21.3253 6.15176 21.3224 6.14622 21.3188 6.14092C21.3089 6.12611 21.298 6.11217 21.2871 6.09816C21.2821 6.09166 21.2777 6.08493 21.2725 6.0786C21.2605 6.06411 21.2476 6.05049 21.2347 6.03695C21.2299 6.03188 21.2256 6.02641 21.2207 6.02142L15.4313 0.231934C15.4264 0.226946 15.4209 0.222749 15.4158 0.217919C15.4022 0.205011 15.3887 0.192104 15.3742 0.180147C15.3678 0.174921 15.361 0.170486 15.3546 0.165498C15.3406 0.154649 15.3266 0.143722 15.3119 0.133824C15.3065 0.130339 15.3009 0.12733 15.2956 0.123925C15.2791 0.113394 15.2625 0.10302 15.2452 0.0937557C15.2415 0.091776 15.2377 0.0902715 15.234 0.088371C15.2148 0.0783937 15.1952 0.0688914 15.175 0.0604977C15.1726 0.0594683 15.17 0.0587557 15.1677 0.0578054C15.1463 0.0491742 15.1245 0.0411765 15.1023 0.0343665C15.0996 0.0335747 15.0969 0.0330995 15.0942 0.0323077C15.0722 0.0258937 15.0501 0.0200339 15.0274 0.0155204C15.0208 0.0141742 15.014 0.0136199 15.0073 0.0124321C14.9885 0.00918552 14.9698 0.00585973 14.9506 0.00395928C14.9245 0.00134615 14.8981 0 14.8716 0H1.31771C0.880452 0 0.52586 0.354593 0.52586 0.791855V25.1866C0.52586 25.6239 0.880452 25.9785 1.31771 25.9785H20.6607C21.098 25.9785 21.4526 25.624 21.4526 25.1866ZM15.6633 2.70363L18.7491 5.78941H15.6633V2.70363ZM2.10957 24.3948V1.58371H14.0795V6.58119C14.0795 7.01845 14.4341 7.37304 14.8713 7.37304H19.8688V24.3948H2.10957Z" fill="#60AC45"/>
</svg>
