<svg width="27" height="35" viewBox="0 0 27 35" fill="none" xmlns="http://www.w3.org/2000/svg">
<path d="M6.73787 8.8671C8.5113 9.34689 10.9128 9.61113 13.5 9.61113C16.0871 9.61113 18.4887 9.34689 20.2621 8.8671C22.4367 8.27883 23.5393 7.40526 23.5393 6.27053C23.5393 5.13588 22.4367 4.26223 20.2621 3.67396C18.4886 3.19417 16.0871 2.92993 13.5 2.92993C10.9128 2.92993 8.51138 3.19417 6.73787 3.67396C4.56327 4.26223 3.46069 5.13588 3.46069 6.27053C3.46069 7.40518 4.56327 8.27876 6.73787 8.8671ZM7.15145 5.20271C8.79392 4.75833 11.0486 4.51364 13.5 4.51364C15.9514 4.51364 18.2061 4.75833 19.8485 5.20271C21.5893 5.67363 21.9556 6.18865 21.9556 6.27053C21.9556 6.35241 21.5893 6.86743 19.8485 7.33835C18.2061 7.78266 15.9514 8.02742 13.5 8.02742C11.0486 8.02742 8.79392 7.78274 7.15145 7.33835C5.41072 6.86743 5.0444 6.35241 5.0444 6.27053C5.0444 6.18865 5.41064 5.67355 7.15145 5.20271Z" fill="#60AC45"/>
<path d="M22.7731 1.66963C20.2831 0.592941 16.9899 0 13.5 0C10.0101 0 6.71688 0.592941 4.22689 1.66963C1.52595 2.83761 0.0384521 4.47153 0.0384521 6.27046V26.2643C0.0384521 28.6687 1.48818 30.9018 4.12055 32.5524C6.63793 34.1307 9.96895 35 13.5 35C17.031 35 20.3621 34.1307 22.8794 32.5523C25.5118 30.9018 26.9615 28.6686 26.9615 26.2642V6.27046C26.9615 4.47153 25.474 2.83761 22.7731 1.66963ZM4.85547 3.12331C7.15145 2.13049 10.2215 1.58371 13.5 1.58371C16.7785 1.58371 19.8485 2.13049 22.1445 3.12331C24.1993 4.01186 25.3778 5.15886 25.3778 6.27046C25.3778 7.43045 24.1139 8.61341 21.9103 9.51588C21.6129 9.63767 21.4185 9.92725 21.4185 10.2487V19.7431C21.4185 20.0051 21.2055 20.2182 20.9434 20.2182C20.6814 20.2182 20.4683 20.0051 20.4683 19.7431V11.0546C20.4683 10.8118 20.357 10.5825 20.1661 10.4324C19.9753 10.2822 19.7261 10.2278 19.4903 10.285C18.7154 10.4724 17.8913 10.6234 17.0408 10.7336C16.6461 10.7848 16.3507 11.1209 16.3507 11.5189V26.8699C16.3507 27.1319 16.1376 27.345 15.8756 27.345C15.6135 27.345 15.4004 27.1319 15.4004 26.8699V11.728C15.4004 11.5129 15.3129 11.307 15.1579 11.1577C15.0101 11.0153 14.8131 10.9362 14.6086 10.9362C14.5987 10.9362 14.5888 10.9363 14.5789 10.9367C14.2148 10.9503 13.8517 10.9573 13.5 10.9573C10.2215 10.9573 7.15145 10.4105 4.85547 9.41769C2.80068 8.52899 1.62216 7.38199 1.62216 6.27046C1.62216 5.15894 2.80068 4.01186 4.85547 3.12331ZM22.0382 31.2106C19.7696 32.6329 16.7373 33.4163 13.5 33.4163C10.2626 33.4163 7.2304 32.6329 4.96181 31.2106C2.8082 29.8602 1.62216 28.1036 1.62216 26.2642V9.29614C2.29215 9.88085 3.16533 10.4121 4.22689 10.8711C6.71688 11.9479 10.0101 12.5408 13.5 12.5408C13.6048 12.5408 13.7104 12.5403 13.8167 12.5391V26.8698C13.8167 28.005 14.7404 28.9286 15.8756 28.9286C17.0108 28.9286 17.9344 28.005 17.9344 26.8698V12.2054C18.2558 12.1551 18.5728 12.0992 18.8846 12.038V19.7431C18.8846 20.8783 19.8082 21.8019 20.9434 21.8019C22.0786 21.8019 23.0023 20.8783 23.0023 19.7431V10.7695C23.961 10.3347 24.757 9.84015 25.3778 9.29947V26.2641C25.3778 28.1036 24.1918 29.8602 22.0382 31.2106Z" fill="#60AC45"/>
</svg>
