<svg width="90" height="84" viewBox="0 0 90 84" fill="none" xmlns="http://www.w3.org/2000/svg">
<path d="M82.9301 51.889H80.8343V42.7939C80.8343 41.6693 79.9224 40.7577 78.7981 40.7577H76.9942V23.6351C76.9942 22.5105 76.0824 21.5989 74.958 21.5989H68.4259V2.17109C68.4259 1.04649 67.5141 0.134888 66.3897 0.134888H14.4446C13.3202 0.134888 12.4084 1.04649 12.4084 2.17109V21.5989H5.87627C4.75188 21.5989 3.84007 22.5105 3.84007 23.6351V40.7577H2.0362C0.91181 40.7577 0 41.6693 0 42.7939V81.8288C0 82.9534 0.91181 83.865 2.0362 83.865H78.7981C79.9224 83.865 80.8343 82.9534 80.8343 81.8288V72.7337H82.9301C86.8286 72.7337 90 69.5624 90 65.664V58.9588C90 55.0603 86.8286 51.889 82.9301 51.889ZM72.9218 25.6713V40.7577H68.4259V25.6713H72.9218ZM16.4808 4.20729H64.3533V40.7577H60.2475V37.6124C60.2475 33.7141 57.0761 30.5427 53.1776 30.5427H35.7618C31.8633 30.5427 28.6919 33.7141 28.6919 37.6124V40.7577H24.659V33.837C24.659 32.7124 23.7472 31.8008 22.6228 31.8008C21.4984 31.8008 20.5866 32.7124 20.5866 33.837V40.7577H16.4808V4.20729ZM32.7643 40.7577V37.6124C32.7643 35.9596 34.109 34.6151 35.7618 34.6151H53.1778C54.8306 34.6151 56.1753 35.9598 56.1753 37.6124V40.7577H32.7643ZM7.91247 25.6713H12.4084V40.7577H7.91247V25.6713ZM76.7619 79.7926H4.0724V55.9614H16.2894C17.4138 55.9614 18.3256 55.0498 18.3256 53.9252C18.3256 52.8006 17.4138 51.889 16.2894 51.889H4.0724V44.8301H14.4446H66.3895H76.7617V51.889H24.6785C23.5541 51.889 22.6423 52.8006 22.6423 53.9252C22.6423 55.0498 23.5541 55.9614 24.6785 55.9614H76.7619V79.7926ZM85.9276 65.6638C85.9276 67.3166 84.5829 68.6611 82.9301 68.6611H80.8343V55.9612H82.9301C84.5829 55.9612 85.9276 57.3059 85.9276 58.9584V65.6638Z" fill="#60AC45"/>
<path d="M24.154 14.3628H56.6802C57.8046 14.3628 58.7164 13.4512 58.7164 12.3266C58.7164 11.2022 57.8046 10.2904 56.6802 10.2904H24.154C23.0296 10.2904 22.1178 11.2022 22.1178 12.3266C22.1178 13.4514 23.0296 14.3628 24.154 14.3628Z" fill="#60AC45"/>
<path d="M24.154 24.5186H56.6802C57.8046 24.5186 58.7164 23.607 58.7164 22.4824C58.7164 21.3578 57.8046 20.4462 56.6802 20.4462H24.154C23.0296 20.4462 22.1178 21.3578 22.1178 22.4824C22.1178 23.607 23.0296 24.5186 24.154 24.5186Z" fill="#60AC45"/>
<path d="M54.3637 65.0627C53.2393 65.0627 52.3275 65.9744 52.3275 67.0989V70.6973C52.3275 71.8219 53.2393 72.7335 54.3637 72.7335C55.488 72.7335 56.3999 71.8219 56.3999 70.6973V67.0989C56.3999 65.9744 55.4882 65.0627 54.3637 65.0627Z" fill="#60AC45"/>
<path d="M62.5085 65.0627C61.3841 65.0627 60.4723 65.9744 60.4723 67.0989V70.6973C60.4723 71.8219 61.3841 72.7335 62.5085 72.7335C63.6329 72.7335 64.5447 71.8219 64.5447 70.6973V67.0989C64.5447 65.9744 63.6331 65.0627 62.5085 65.0627Z" fill="#60AC45"/>
<path d="M70.6533 65.0627C69.5289 65.0627 68.6171 65.9744 68.6171 67.0989V70.6973C68.6171 71.8219 69.5289 72.7335 70.6533 72.7335C71.7777 72.7335 72.6895 71.8219 72.6895 70.6973V67.0989C72.6895 65.9744 71.7779 65.0627 70.6533 65.0627Z" fill="#60AC45"/>
</svg>
