<svg width="90" height="90" viewBox="0 0 90 90" fill="none" xmlns="http://www.w3.org/2000/svg">
<g clip-path="url(#clip0_160_162)">
<path d="M87.9638 42.9638H76.7006C75.6898 27.066 62.934 14.3102 47.0362 13.2994V2.0362C47.0362 0.911606 46.1246 0 45 0C43.8754 0 42.9638 0.911606 42.9638 2.0362V13.2994C27.066 14.3102 14.3102 27.066 13.2994 42.9638H2.0362C0.911606 42.9638 0 43.8754 0 45C0 46.1246 0.911606 47.0362 2.0362 47.0362H13.2994C14.3102 62.934 27.066 75.6898 42.9638 76.7006V87.9638C42.9638 89.0884 43.8754 90 45 90C46.1246 90 47.0362 89.0884 47.0362 87.9638V76.7006C62.934 75.6898 75.6898 62.934 76.7006 47.0362H87.9638C89.0884 47.0362 90 46.1246 90 45C90 43.8754 89.0884 42.9638 87.9638 42.9638ZM72.6202 42.9638H67.4448C66.4725 32.1581 57.8419 23.5277 47.0364 22.5552V17.3798C60.6877 18.3767 71.6233 29.3123 72.6202 42.9638ZM42.9638 42.9638H26.6473C27.5905 34.4055 34.4053 27.5907 42.9638 26.6475V42.9638ZM42.9638 47.0362V63.3525C34.4055 62.4093 27.5905 55.5943 26.6473 47.0362H42.9638ZM47.0362 47.0362H63.3525C62.4093 55.5945 55.5945 62.4093 47.0362 63.3525V47.0362ZM47.0362 42.9638V26.6475C55.5945 27.5907 62.4093 34.4057 63.3525 42.9638H47.0362ZM42.9638 17.3798V22.5552C32.1581 23.5275 23.5275 32.1581 22.5552 42.9638H17.3798C18.3767 29.3123 29.3123 18.3767 42.9638 17.3798ZM17.3798 47.0362H22.5552C23.5275 57.8419 32.1581 66.4723 42.9638 67.4448V72.6202C29.3123 71.6233 18.3767 60.6877 17.3798 47.0362ZM47.0362 72.6202V67.4448C57.8419 66.4725 66.4723 57.8419 67.4446 47.0362H72.62C71.6233 60.6877 60.6877 71.6233 47.0362 72.6202Z" fill="#60AC45"/>
</g>
<defs>
<clipPath id="clip0_160_162">
<rect width="90" height="90" fill="white"/>
</clipPath>
</defs>
</svg>
