<svg width="90" height="90" viewBox="0 0 90 90" fill="none" xmlns="http://www.w3.org/2000/svg">
<path d="M62.8017 9.76256V2.0362C62.8017 0.91181 61.8901 0 60.7655 0H3.43222C2.30762 0 1.39602 0.91181 1.39602 2.0362V80.5046C1.39602 81.629 2.30762 82.5408 3.43222 82.5408H3.68919C4.624 86.8011 8.42579 90 12.9626 90H51.2352C55.7721 90 59.5737 86.8011 60.5085 82.5408H60.7655C61.8901 82.5408 62.8017 81.629 62.8017 80.5046V65.2919C77.2047 64.2455 88.604 52.1925 88.604 37.5274C88.604 22.8622 77.2047 10.809 62.8017 9.76256ZM60.7655 61.2935C59.6409 61.2935 58.7293 62.2053 58.7293 63.3297V78.4686H27.6833C26.5588 78.4686 25.6471 79.3804 25.6471 80.5048C25.6471 81.6292 26.5588 82.541 27.6833 82.541H56.26C55.4532 84.5247 53.5054 85.9276 51.2352 85.9276H12.9626C10.6923 85.9276 8.74466 84.5247 7.93772 82.5408H19.8033C20.9278 82.5408 21.8395 81.629 21.8395 80.5046C21.8395 79.3802 20.9278 78.4684 19.8033 78.4684H5.46842V4.0724H58.7293V11.725C58.7293 12.8494 59.6409 13.7612 60.7655 13.7612C73.87 13.7612 84.5316 24.4226 84.5316 37.5274C84.5316 50.6321 73.8703 61.2935 60.7655 61.2935Z" fill="#60AC45"/>
<path d="M60.7655 17.9576C59.6409 17.9576 58.7293 18.8695 58.7293 19.9938V55.0606C58.7293 56.185 59.6409 57.0968 60.7655 57.0968C71.5561 57.0968 80.335 48.318 80.335 37.5273C80.335 26.7367 71.5561 17.9576 60.7655 17.9576ZM62.8017 52.8913V22.1634C70.3881 23.1634 76.2626 29.6723 76.2626 37.5273C76.2626 45.3824 70.3884 51.8913 62.8017 52.8913Z" fill="#60AC45"/>
<path d="M45.753 57.7637C44.8719 57.7637 44.1216 58.3232 43.8379 59.1065C43.0548 59.3902 42.4951 60.1405 42.4951 61.0216C42.4951 62.146 43.4067 63.0578 44.5313 63.0578H45.753C46.8776 63.0578 47.7892 62.146 47.7892 61.0216V59.7999C47.7892 58.6753 46.8776 57.7637 45.753 57.7637Z" fill="#60AC45"/>
<path d="M37.7849 58.9855H35.472C34.3474 58.9855 33.4358 59.8973 33.4358 61.0217C33.4358 62.1461 34.3474 63.0579 35.472 63.0579H37.7849C38.9095 63.0579 39.8211 62.1461 39.8211 61.0217C39.8211 59.8973 38.9095 58.9855 37.7849 58.9855Z" fill="#60AC45"/>
<path d="M28.7257 58.9855H26.4128C25.2882 58.9855 24.3766 59.8973 24.3766 61.0217C24.3766 62.1461 25.2882 63.0579 26.4128 63.0579H28.7257C29.8503 63.0579 30.7619 62.1461 30.7619 61.0217C30.7619 59.8973 29.8503 58.9855 28.7257 58.9855Z" fill="#60AC45"/>
<path d="M20.3597 59.1064C20.0761 58.3231 19.3258 57.7635 18.4447 57.7635C17.3201 57.7635 16.4085 58.6754 16.4085 59.7997V61.0215C16.4085 62.1459 17.3201 63.0577 18.4447 63.0577H19.6664C20.791 63.0577 21.7026 62.1459 21.7026 61.0215C21.7026 60.1404 21.1429 59.3901 20.3597 59.1064Z" fill="#60AC45"/>
<path d="M18.4447 44.5699C19.5693 44.5699 20.4809 43.6581 20.4809 42.5337V40.007C20.4809 38.8826 19.5693 37.9708 18.4447 37.9708C17.3201 37.9708 16.4085 38.8826 16.4085 40.007V42.5337C16.4085 43.6581 17.3201 44.5699 18.4447 44.5699Z" fill="#60AC45"/>
<path d="M18.4447 34.6736C19.5693 34.6736 20.4809 33.7618 20.4809 32.6374V30.1107C20.4809 28.9863 19.5693 28.0745 18.4447 28.0745C17.3201 28.0745 16.4085 28.9863 16.4085 30.1107V32.6374C16.4085 33.762 17.3201 34.6736 18.4447 34.6736Z" fill="#60AC45"/>
<path d="M18.4447 54.4663C19.5693 54.4663 20.4809 53.5545 20.4809 52.4301V49.9034C20.4809 48.779 19.5693 47.8672 18.4447 47.8672C17.3201 47.8672 16.4085 48.779 16.4085 49.9034V52.4301C16.4085 53.5547 17.3201 54.4663 18.4447 54.4663Z" fill="#60AC45"/>
<path d="M19.6664 19.4832H18.4447C17.3201 19.4832 16.4085 20.395 16.4085 21.5194V22.7411C16.4085 23.8655 17.3201 24.7773 18.4447 24.7773C19.3258 24.7773 20.0761 24.2177 20.3597 23.4344C21.1429 23.1508 21.7026 22.4004 21.7026 21.5194C21.7026 20.3948 20.791 19.4832 19.6664 19.4832Z" fill="#60AC45"/>
<path d="M28.7257 19.4832H26.4128C25.2882 19.4832 24.3766 20.395 24.3766 21.5194C24.3766 22.6437 25.2882 23.5556 26.4128 23.5556H28.7257C29.8503 23.5556 30.7619 22.6437 30.7619 21.5194C30.7619 20.395 29.8503 19.4832 28.7257 19.4832Z" fill="#60AC45"/>
<path d="M37.7849 19.4832H35.472C34.3474 19.4832 33.4358 20.395 33.4358 21.5194C33.4358 22.6437 34.3474 23.5556 35.472 23.5556H37.7849C38.9095 23.5556 39.8211 22.6437 39.8211 21.5194C39.8211 20.395 38.9095 19.4832 37.7849 19.4832Z" fill="#60AC45"/>
<path d="M45.753 19.4832H44.5313C43.4067 19.4832 42.4951 20.395 42.4951 21.5194C42.4951 22.4004 43.0548 23.151 43.8379 23.4344C44.1216 24.2177 44.8719 24.7773 45.753 24.7773C46.8776 24.7773 47.7892 23.8655 47.7892 22.7411V21.5194C47.7892 20.3948 46.8776 19.4832 45.753 19.4832Z" fill="#60AC45"/>
<path d="M45.753 37.9708C44.6284 37.9708 43.7168 38.8826 43.7168 40.007V42.5337C43.7168 43.6581 44.6284 44.5699 45.753 44.5699C46.8776 44.5699 47.7892 43.6581 47.7892 42.5337V40.007C47.7892 38.8826 46.8776 37.9708 45.753 37.9708Z" fill="#60AC45"/>
<path d="M45.753 28.0745C44.6284 28.0745 43.7168 28.9863 43.7168 30.1107V32.6374C43.7168 33.7618 44.6284 34.6736 45.753 34.6736C46.8776 34.6736 47.7892 33.7618 47.7892 32.6374V30.1107C47.7892 28.9861 46.8776 28.0745 45.753 28.0745Z" fill="#60AC45"/>
<path d="M45.753 47.8672C44.6284 47.8672 43.7168 48.779 43.7168 49.9034V52.4301C43.7168 53.5545 44.6284 54.4663 45.753 54.4663C46.8776 54.4663 47.7892 53.5545 47.7892 52.4301V49.9034C47.7892 48.779 46.8776 47.8672 45.753 47.8672Z" fill="#60AC45"/>
</svg>
