<svg width="90" height="90" viewBox="0 0 90 90" fill="none" xmlns="http://www.w3.org/2000/svg">
<path d="M33.6932 0C32.9838 0 32.3257 0.369163 31.9557 0.974525C30.8714 2.74867 5.40182 44.6237 5.40182 61.7088C5.40182 77.3086 18.0932 90 33.6932 90C49.2931 90 61.9843 77.3086 61.9843 61.7088C61.9843 44.6237 36.5147 2.74867 35.4305 0.974525C35.0607 0.369163 34.4026 0 33.6932 0ZM33.6932 85.9276C20.339 85.9276 9.47443 75.0631 9.47443 61.7088C9.47443 48.2141 27.8772 15.8893 33.6932 6.01127C39.5092 15.8893 57.9119 48.2141 57.9119 61.7088C57.9119 75.0631 47.0476 85.9276 33.6932 85.9276Z" fill="#60AC45"/>
<path d="M19.6795 44.2109C19.1376 45.5002 18.63 46.758 18.1706 47.9496C15.0333 56.0893 14.5647 60.0639 14.5647 61.7088C14.5647 72.2561 23.1457 80.837 33.693 80.837C44.2403 80.837 52.8212 72.2561 52.8212 61.7088C52.8212 60.0595 52.3503 56.0726 49.1968 47.9019C48.7409 46.7205 48.2394 45.4789 47.7067 44.2113C47.3889 43.4557 46.6493 42.9642 45.8295 42.9642L21.5566 42.9637C20.7371 42.9637 19.9971 43.4553 19.6795 44.2109ZM22.9164 47.0361L44.47 47.0366C44.7962 47.8335 45.1067 48.614 45.3979 49.3682C48.5074 57.425 48.7491 60.8507 48.7491 61.7086C48.7491 70.0104 41.995 76.7644 33.6932 76.7644C25.3914 76.7644 18.6373 70.0104 18.6373 61.7086C18.6373 60.8532 18.8778 57.4387 21.9708 49.4142C22.2662 48.6474 22.5829 47.8512 22.9164 47.0361Z" fill="#60AC45"/>
<path d="M82.5619 0H69.809C68.6846 0 67.7728 0.911606 67.7728 2.0362C67.7728 3.16079 68.6846 4.0724 69.809 4.0724H80.5257V14.3212H74.085C72.9607 14.3212 72.0488 15.2328 72.0488 16.3574C72.0488 17.482 72.9607 18.3936 74.085 18.3936H80.5257V28.6424H74.085C72.9607 28.6424 72.0488 29.554 72.0488 30.6786C72.0488 31.8032 72.9607 32.7148 74.085 32.7148H80.5257V42.9638H69.809C68.6846 42.9638 67.7728 43.8754 67.7728 45C67.7728 46.1246 68.6846 47.0362 69.809 47.0362H80.5257V57.285H74.085C72.9607 57.285 72.0488 58.1966 72.0488 59.3212C72.0488 60.4458 72.9607 61.3574 74.085 61.3574H80.5257V71.6062H74.085C72.9607 71.6062 72.0488 72.5178 72.0488 73.6424C72.0488 74.767 72.9607 75.6786 74.085 75.6786H80.5257V85.9276H69.809C68.6846 85.9276 67.7728 86.8392 67.7728 87.9638C67.7728 89.0884 68.6846 90 69.809 90H82.5619C83.6863 90 84.5981 89.0884 84.5981 87.9638V2.0362C84.5981 0.911606 83.6863 0 82.5619 0Z" fill="#60AC45"/>
</svg>
