<svg width="50" height="50" viewBox="0 0 50 50" fill="none" xmlns="http://www.w3.org/2000/svg">
<path d="M18.7184 0C18.3243 0 17.9587 0.20509 17.7531 0.541403C17.1508 1.52704 3.00098 24.7909 3.00098 34.2827C3.00098 42.9492 10.0518 50 18.7184 50C27.385 50 34.4357 42.9492 34.4357 34.2827C34.4357 24.7909 20.2859 1.52704 19.6836 0.541403C19.4781 0.20509 19.1125 0 18.7184 0ZM18.7184 47.7376C11.2994 47.7376 5.26353 41.7017 5.26353 34.2827C5.26353 26.7856 15.4873 8.82738 18.7184 3.33959C21.9495 8.82738 32.1733 26.7856 32.1733 34.2827C32.1733 41.7017 26.1375 47.7376 18.7184 47.7376Z" fill="white"/>
<path d="M10.9329 24.5618C10.6319 25.2781 10.3499 25.9768 10.0947 26.6388C8.35172 31.1609 8.09143 33.369 8.09143 34.2828C8.09143 40.1424 12.8586 44.9096 18.7182 44.9096C24.5779 44.9096 29.3451 40.1424 29.3451 34.2828C29.3451 33.3665 29.0834 31.1516 27.3315 26.6123C27.0782 25.956 26.7996 25.2662 26.5036 24.562C26.3271 24.1422 25.9162 23.8691 25.4608 23.8691L11.9758 23.8689C11.5205 23.8689 11.1094 24.142 10.9329 24.5618ZM12.7312 26.1313L24.7055 26.1316C24.8867 26.5743 25.0592 27.0079 25.221 27.4269C26.9484 31.9029 27.0827 33.8061 27.0827 34.2827C27.0827 38.8948 23.3305 42.6471 18.7184 42.6471C14.1062 42.6471 10.354 38.8948 10.354 34.2827C10.354 33.8075 10.4876 31.9105 12.2059 27.4525C12.3701 27.0265 12.546 26.5842 12.7312 26.1313Z" fill="white"/>
<path d="M45.8677 0H38.7827C38.1581 0 37.6515 0.506448 37.6515 1.13122C37.6515 1.756 38.1581 2.26244 38.7827 2.26244H44.7364V7.95622H41.1583C40.5336 7.95622 40.0271 8.46267 40.0271 9.08744C40.0271 9.71222 40.5336 10.2187 41.1583 10.2187H44.7364V15.9124H41.1583C40.5336 15.9124 40.0271 16.4189 40.0271 17.0437C40.0271 17.6684 40.5336 18.1749 41.1583 18.1749H44.7364V23.8688H38.7827C38.1581 23.8688 37.6515 24.3752 37.6515 25C37.6515 25.6248 38.1581 26.1312 38.7827 26.1312H44.7364V31.825H41.1583C40.5336 31.825 40.0271 32.3314 40.0271 32.9562C40.0271 33.581 40.5336 34.0874 41.1583 34.0874H44.7364V39.7812H41.1583C40.5336 39.7812 40.0271 40.2877 40.0271 40.9124C40.0271 41.5372 40.5336 42.0437 41.1583 42.0437H44.7364V47.7376H38.7827C38.1581 47.7376 37.6515 48.244 37.6515 48.8688C37.6515 49.4936 38.1581 50 38.7827 50H45.8677C46.4923 50 46.9989 49.4936 46.9989 48.8688V1.13122C46.9989 0.506448 46.4923 0 45.8677 0Z" fill="white"/>
</svg>
