<svg width="50" height="50" viewBox="0 0 50 50" fill="none" xmlns="http://www.w3.org/2000/svg">
<g clip-path="url(#clip0_185_64)">
<path d="M46.4092 31.7375H43.2097L45.9806 30.1377C46.809 29.6594 47.4021 28.8848 47.6508 27.9565C47.8995 27.0282 47.7731 26.0609 47.2948 25.2325L41.7543 15.636C41.2762 14.8078 40.5015 14.2146 39.5732 13.9657C38.6444 13.7168 37.6774 13.8434 36.8491 14.3217L34.0782 15.9215L35.678 13.1506C36.1563 12.3222 36.2827 11.3549 36.034 10.4267C35.7853 9.49844 35.1922 8.72379 34.3638 8.24561L24.7673 2.70503C23.0527 1.71493 20.8522 2.30466 19.8623 4.01926L19.6198 4.43926C19.2892 5.01175 19.4854 5.74379 20.0577 6.07439C20.6304 6.40486 21.3623 6.2088 21.6929 5.63631L21.9354 5.21619C22.2654 4.64477 22.9987 4.448 23.5704 4.77799L33.1669 10.3186C33.4414 10.4772 33.6385 10.7355 33.7218 11.0461C33.8049 11.3567 33.7635 11.679 33.6049 11.9536L20.3207 34.9627C20.314 34.9739 20.3075 34.9852 20.3012 34.9966L19.6198 36.1769C19.5147 36.3588 19.4594 36.5653 19.4594 36.7754V37.2686C19.4594 37.6963 19.6875 38.0914 20.0579 38.3051C20.243 38.412 20.4496 38.4655 20.6563 38.4655C20.863 38.4655 21.0696 38.412 21.2548 38.3051L22.5044 37.5838C22.7793 37.4251 22.9799 37.1635 23.062 36.857C23.1443 36.5503 23.1012 36.2236 22.9425 35.9486L22.7291 35.579L24.4009 32.6833L25.4503 34.5007C25.6721 34.8847 26.0742 35.0993 26.488 35.0993C26.691 35.0993 26.8968 35.0476 27.0853 34.9388L31.6662 32.2941C31.9411 32.1353 32.1417 31.8739 32.2238 31.5673C32.306 31.2606 32.2629 30.9339 32.1042 30.6591L29.4594 26.0782C29.3007 25.8032 29.0393 25.6026 28.7326 25.5205C28.674 25.5048 28.6145 25.4951 28.5549 25.4884L31.6845 20.0678L38.0461 16.3948C38.3207 16.2363 38.6428 16.1948 38.9537 16.278C39.2644 16.3613 39.5228 16.5583 39.6813 16.8329L45.2217 26.4293C45.3802 26.7039 45.4217 27.0263 45.3385 27.3369C45.2554 27.6475 45.0582 27.9059 44.7837 28.0645L21.7756 41.3482C21.7635 41.3549 21.7516 41.3617 21.7398 41.3689L20.0579 42.34C19.6875 42.5538 19.4594 42.9489 19.4594 43.3765V43.5136C19.4594 44.1746 19.9954 44.7105 20.6563 44.7105H22.3551C23.0161 44.7105 23.5521 44.1746 23.5521 43.5136V43.0869L26.4478 41.415V43.5136C26.4478 44.1746 26.9838 44.7105 27.6447 44.7105H32.9342C33.5951 44.7105 34.1311 44.1746 34.1311 43.5136V38.224C34.1311 37.8285 33.9384 37.4788 33.6428 37.261L39.0633 34.1315H46.4091C47.0691 34.1315 47.606 34.6684 47.606 35.3284V46.4094C47.606 47.0694 47.0691 47.6064 46.4091 47.6064H20.1552C19.4942 47.6064 18.9583 48.1422 18.9583 48.8033C18.9583 49.4644 19.4942 50.0002 20.1552 50.0002H46.4093C48.3893 50.0002 50.0001 48.3894 50.0001 46.4094V35.3284C50 33.3483 48.3892 31.7375 46.4092 31.7375ZM27.9849 28.3118L29.4328 30.8196L26.925 32.2674L25.7831 30.2896L26.3951 29.2297L27.9849 28.3118ZM31.7374 39.4209V42.3167H28.8418V40.0329L29.9016 39.421L31.7374 39.4209Z" fill="white"/>
<path d="M43.5136 44.7103C44.1746 44.7103 44.7105 44.1744 44.7105 43.5134V38.2238C44.7105 37.5627 44.1746 37.0269 43.5136 37.0269H38.224C37.5631 37.0269 37.0271 37.5627 37.0271 38.2238V43.5134C37.0271 44.1744 37.5631 44.7103 38.224 44.7103H43.5136ZM39.421 39.4208H42.3167V42.3166H39.421V39.4208Z" fill="white"/>
<path d="M36.2471 29.6495L40.828 27.0047C41.1029 26.846 41.3036 26.5846 41.3857 26.2779C41.4679 25.9713 41.4248 25.6445 41.2661 25.3697L38.6212 20.7888C38.2908 20.2165 37.5587 20.0202 36.9862 20.3508L32.4053 22.9956C32.1304 23.1543 31.9298 23.4157 31.8477 23.7224C31.7655 24.029 31.8086 24.3558 31.9673 24.6306L34.6121 29.2115C34.8339 29.5955 35.2361 29.8101 35.6499 29.8101C35.8529 29.8101 36.0586 29.7584 36.2471 29.6495ZM34.6388 24.4701L37.1466 23.0222L38.5945 25.53L36.0867 26.9778L34.6388 24.4701Z" fill="white"/>
<path d="M19.6195 25.5472C19.2892 26.1198 19.4858 26.8517 20.0584 27.1821L20.0805 27.1948C20.2689 27.3035 20.4746 27.3551 20.6773 27.3551C21.091 27.3551 21.4934 27.1404 21.7151 26.7565L24.3599 22.1756C24.5186 21.9006 24.5617 21.574 24.4795 21.2674C24.3973 20.9607 24.1968 20.6993 23.9218 20.5406L21.255 19.0009C20.6824 18.6704 19.9504 18.8666 19.62 19.4389C19.2894 20.0114 19.4855 20.7435 20.058 21.0739L21.6884 22.0152L19.7655 25.3458C19.7109 25.4065 19.662 25.4737 19.6195 25.5472Z" fill="white"/>
<path d="M20.7888 15.3879L25.3697 18.0328C25.5582 18.1416 25.7639 18.1933 25.9669 18.1933C26.3806 18.1933 26.783 17.9787 27.0047 17.5947L29.6495 13.0138C29.8082 12.7389 29.8513 12.4122 29.7691 12.1056C29.6869 11.7989 29.4864 11.5375 29.2114 11.3788L24.6304 8.73384C24.0578 8.40325 23.3259 8.59942 22.9954 9.17192L20.3506 13.7528C20.1919 14.0277 20.1488 14.3544 20.231 14.661C20.3132 14.9677 20.5138 15.2291 20.7888 15.3879ZM24.47 11.4055L26.9778 12.8533L25.5299 15.3611L23.0221 13.9132L24.47 11.4055Z" fill="white"/>
<path d="M14.6718 0H3.59078C1.61083 0 0 1.61083 0 3.59078V46.4092C0 48.3892 1.61083 50 3.59078 50H14.6718C16.6518 50 18.2626 48.3892 18.2626 46.4092V3.59078C18.2626 1.61083 16.6518 0 14.6718 0ZM15.8688 46.4092C15.8688 47.0692 15.3318 47.6061 14.6718 47.6061H3.59078C2.9308 47.6061 2.39386 47.0692 2.39386 46.4092V3.59078C2.39386 2.9308 2.9308 2.39386 3.59078 2.39386H14.6718C15.3318 2.39386 15.8688 2.9308 15.8688 3.59078V46.4092Z" fill="white"/>
<path d="M9.13116 38.4749C7.81119 38.4749 6.7373 39.5487 6.7373 40.8687C6.7373 42.1887 7.81119 43.2626 9.13116 43.2626C10.4511 43.2626 11.525 42.1887 11.525 40.8687C11.525 39.5487 10.4511 38.4749 9.13116 38.4749Z" fill="white"/>
</g>
<defs>
<clipPath id="clip0_185_64">
<rect width="50" height="50" fill="white"/>
</clipPath>
</defs>
</svg>
