<svg width="50" height="50" viewBox="0 0 50 50" fill="none" xmlns="http://www.w3.org/2000/svg">
<g clip-path="url(#clip0_240_160)">
<path d="M34.8899 5.42376V1.13134C34.8899 0.506683 34.3834 0.00012207 33.7587 0.00012207H1.90686C1.28208 0.00012207 0.775635 0.506683 0.775635 1.13134V44.7249C0.775635 45.3496 1.28208 45.8561 1.90686 45.8561H2.04962C2.56896 48.223 4.68106 50.0001 7.20154 50.0001H28.4641C30.9846 50.0001 33.0966 48.223 33.6159 45.8561H33.7587C34.3834 45.8561 34.8899 45.3496 34.8899 44.7249V36.2734C42.8916 35.6921 49.2245 28.9959 49.2245 20.8487C49.2245 12.7014 42.8916 6.0051 34.8899 5.42376ZM33.7587 34.052C33.1339 34.052 32.6274 34.5586 32.6274 35.1833V43.5938H15.3797C14.7549 43.5938 14.2485 44.1003 14.2485 44.725C14.2485 45.3497 14.7549 45.8562 15.3797 45.8562H31.2556C30.8074 46.9583 29.7253 47.7377 28.4641 47.7377H7.20154C5.94023 47.7377 4.85821 46.9583 4.40991 45.8561H11.0019C11.6267 45.8561 12.1331 45.3496 12.1331 44.7249C12.1331 44.1002 11.6267 43.5937 11.0019 43.5937H3.03808V2.26257H32.6274V6.51404C32.6274 7.1387 33.1339 7.64526 33.7587 7.64526C41.039 7.64526 46.9621 13.5682 46.9621 20.8487C46.9621 28.1291 41.0391 34.052 33.7587 34.052Z" fill="#202220"/>
<path d="M33.7587 9.97656C33.1339 9.97656 32.6274 10.4831 32.6274 11.1078V30.5893C32.6274 31.214 33.1339 31.7206 33.7587 31.7206C39.7535 31.7206 44.6306 26.8434 44.6306 20.8486C44.6306 14.8538 39.7535 9.97656 33.7587 9.97656ZM34.8899 29.3841V12.3131C39.1046 12.8686 42.3682 16.4847 42.3682 20.8486C42.3682 25.2125 39.1047 28.8286 34.8899 29.3841Z" fill="#202220"/>
<path d="M25.4184 32.0911C24.9289 32.0911 24.512 32.4019 24.3544 32.8371C23.9194 32.9947 23.6084 33.4115 23.6084 33.901C23.6084 34.5257 24.1148 35.0322 24.7396 35.0322H25.4184C26.0431 35.0322 26.5496 34.5257 26.5496 33.901V33.2223C26.5496 32.5975 26.0431 32.0911 25.4184 32.0911Z" fill="#202220"/>
<path d="M20.9916 32.7698H19.7067C19.0819 32.7698 18.5754 33.2763 18.5754 33.901C18.5754 34.5257 19.0819 35.0322 19.7067 35.0322H20.9916C21.6164 35.0322 22.1228 34.5257 22.1228 33.901C22.1228 33.2763 21.6164 32.7698 20.9916 32.7698Z" fill="#202220"/>
<path d="M15.9589 32.7698H14.6739C14.0492 32.7698 13.5427 33.2763 13.5427 33.901C13.5427 34.5257 14.0492 35.0322 14.6739 35.0322H15.9589C16.5837 35.0322 17.0901 34.5257 17.0901 33.901C17.0901 33.2763 16.5837 32.7698 15.9589 32.7698Z" fill="#202220"/>
<path d="M11.3111 32.837C11.1535 32.4018 10.7367 32.0909 10.2472 32.0909C9.62241 32.0909 9.11597 32.5975 9.11597 33.2222V33.9009C9.11597 34.5256 9.62241 35.0321 10.2472 35.0321H10.9259C11.5507 35.0321 12.0571 34.5256 12.0571 33.9009C12.0571 33.4114 11.7462 32.9946 11.3111 32.837Z" fill="#202220"/>
<path d="M10.2472 24.7611C10.872 24.7611 11.3784 24.2546 11.3784 23.6299V22.2262C11.3784 21.6015 10.872 21.095 10.2472 21.095C9.62241 21.095 9.11597 21.6015 9.11597 22.2262V23.6299C9.11597 24.2546 9.62241 24.7611 10.2472 24.7611Z" fill="#202220"/>
<path d="M10.2472 19.2632C10.872 19.2632 11.3784 18.7567 11.3784 18.132V16.7283C11.3784 16.1036 10.872 15.597 10.2472 15.597C9.62241 15.597 9.11597 16.1036 9.11597 16.7283V18.132C9.11597 18.7568 9.62241 19.2632 10.2472 19.2632Z" fill="#202220"/>
<path d="M10.2472 30.2592C10.872 30.2592 11.3784 29.7526 11.3784 29.128V27.7242C11.3784 27.0996 10.872 26.593 10.2472 26.593C9.62241 26.593 9.11597 27.0996 9.11597 27.7242V29.128C9.11597 29.7527 9.62241 30.2592 10.2472 30.2592Z" fill="#202220"/>
<path d="M10.9259 10.8241H10.2472C9.62241 10.8241 9.11597 11.3307 9.11597 11.9553V12.6341C9.11597 13.2587 9.62241 13.7653 10.2472 13.7653C10.7367 13.7653 11.1535 13.4544 11.3111 13.0192C11.7462 12.8617 12.0571 12.4448 12.0571 11.9553C12.0571 11.3305 11.5507 10.8241 10.9259 10.8241Z" fill="#202220"/>
<path d="M15.9589 10.8241H14.6739C14.0492 10.8241 13.5427 11.3307 13.5427 11.9553C13.5427 12.58 14.0492 13.0865 14.6739 13.0865H15.9589C16.5837 13.0865 17.0901 12.58 17.0901 11.9553C17.0901 11.3307 16.5837 10.8241 15.9589 10.8241Z" fill="#202220"/>
<path d="M20.9916 10.8241H19.7067C19.0819 10.8241 18.5754 11.3307 18.5754 11.9553C18.5754 12.58 19.0819 13.0865 19.7067 13.0865H20.9916C21.6164 13.0865 22.1228 12.58 22.1228 11.9553C22.1228 11.3307 21.6164 10.8241 20.9916 10.8241Z" fill="#202220"/>
<path d="M25.4184 10.8241H24.7396C24.1148 10.8241 23.6084 11.3307 23.6084 11.9553C23.6084 12.4448 23.9194 12.8618 24.3544 13.0192C24.512 13.4544 24.9289 13.7653 25.4184 13.7653C26.0431 13.7653 26.5496 13.2587 26.5496 12.6341V11.9553C26.5496 11.3305 26.0431 10.8241 25.4184 10.8241Z" fill="#202220"/>
<path d="M25.4183 21.095C24.7936 21.095 24.2871 21.6015 24.2871 22.2262V23.6299C24.2871 24.2546 24.7936 24.7611 25.4183 24.7611C26.0431 24.7611 26.5496 24.2546 26.5496 23.6299V22.2262C26.5496 21.6015 26.0431 21.095 25.4183 21.095Z" fill="#202220"/>
<path d="M25.4183 15.597C24.7936 15.597 24.2871 16.1036 24.2871 16.7283V18.132C24.2871 18.7567 24.7936 19.2632 25.4183 19.2632C26.0431 19.2632 26.5496 18.7567 26.5496 18.132V16.7283C26.5496 16.1035 26.0431 15.597 25.4183 15.597Z" fill="#202220"/>
<path d="M25.4183 26.593C24.7936 26.593 24.2871 27.0996 24.2871 27.7242V29.128C24.2871 29.7526 24.7936 30.2592 25.4183 30.2592C26.0431 30.2592 26.5496 29.7526 26.5496 29.128V27.7242C26.5496 27.0996 26.0431 26.593 25.4183 26.593Z" fill="#202220"/>
</g>
<defs>
<clipPath id="clip0_240_160">
<rect width="50" height="50" fill="white"/>
</clipPath>
</defs>
</svg>
