<svg width="50" height="50" viewBox="0 0 50 50" fill="none" xmlns="http://www.w3.org/2000/svg">
<g clip-path="url(#clip0_240_189)">
<path d="M49.9751 46.6446L47.1623 33.3843L42.7262 12.4711C42.5965 11.8601 41.9961 11.4697 41.3849 11.5993C40.7738 11.729 40.3833 12.3295 40.5131 12.9406L44.6594 32.4877H37.1835C36.5588 32.4877 36.0522 32.9941 36.0522 33.6189C36.0522 34.2437 36.5588 34.7501 37.1835 34.7501H45.1394L47.762 47.1139C47.8748 47.6459 48.3444 48.0106 48.8674 48.0106C48.9452 48.0106 49.0242 48.0026 49.1033 47.9857C49.635 47.873 49.9996 47.4036 50 46.881C50.0001 46.8032 49.9921 46.724 49.9751 46.6446Z" fill="#202220"/>
<path d="M40.7116 3.23379C40.7126 3.22417 40.7125 3.21456 40.7133 3.20483C40.7157 3.17372 40.7172 3.14261 40.7171 3.11185C40.717 3.10076 40.7161 3.08979 40.7157 3.07881C40.7146 3.04952 40.7128 3.02033 40.7096 2.99137C40.7082 2.97949 40.7063 2.96773 40.7045 2.95585C40.7004 2.92814 40.6955 2.90076 40.6894 2.87361C40.6866 2.86094 40.6834 2.8485 40.6801 2.83594C40.6734 2.81015 40.6658 2.7847 40.6573 2.75959C40.6529 2.74658 40.6486 2.73345 40.6436 2.72056C40.6343 2.69601 40.6239 2.67203 40.6129 2.64827C40.6072 2.63583 40.6019 2.62316 40.5956 2.61083C40.5824 2.5847 40.5678 2.55936 40.5527 2.53436C40.5473 2.52554 40.5427 2.51638 40.537 2.50767C40.5157 2.47452 40.4926 2.44251 40.4679 2.41174C40.467 2.41061 40.4662 2.40936 40.4653 2.40812C40.4602 2.4019 40.4543 2.39647 40.4491 2.39036C40.4294 2.36694 40.4091 2.34421 40.3875 2.32237C40.3784 2.31332 40.3689 2.30495 40.3597 2.29613C40.3396 2.27735 40.3193 2.25914 40.2979 2.24172C40.2877 2.23346 40.2773 2.22565 40.2669 2.21774C40.2452 2.20133 40.2229 2.18572 40.1999 2.1709C40.1891 2.16389 40.1782 2.15699 40.1672 2.15043C40.1439 2.13651 40.12 2.12351 40.0955 2.11118C40.0838 2.10529 40.0722 2.09918 40.0602 2.09375C40.0363 2.08267 40.0115 2.07294 39.9865 2.06344C39.9734 2.05846 39.9604 2.05303 39.947 2.04862C39.923 2.04059 39.8984 2.03403 39.8736 2.02758C39.8589 2.02373 39.8443 2.01909 39.8295 2.01581C39.8266 2.01525 39.824 2.01423 39.8212 2.01355C39.7943 2.0079 39.7676 2.00439 39.7408 2.00066C39.7307 1.9993 39.7209 1.99704 39.7108 1.9959C39.6695 1.99127 39.6283 1.98912 39.5875 1.989C39.5872 1.989 39.5868 1.98889 39.5865 1.98889H10.4239C10.4214 1.98889 10.4188 1.98889 10.4163 1.98889H10.4138C10.4093 1.98889 10.4048 1.98946 10.4003 1.98957C10.367 1.98991 10.3337 1.99127 10.3009 1.99455C10.291 1.99557 10.2814 1.99749 10.2717 1.99873C10.2448 2.00213 10.2179 2.00563 10.1914 2.01095C10.1757 2.01412 10.1605 2.01853 10.1451 2.02226C10.1252 2.02713 10.1051 2.03165 10.0855 2.03753C10.0666 2.0433 10.0483 2.05032 10.0297 2.0571C10.0141 2.06276 9.99829 2.06785 9.98302 2.07418C9.96367 2.0821 9.94512 2.09138 9.92634 2.10043C9.9122 2.10722 9.89795 2.11344 9.88415 2.12079C9.8665 2.13018 9.84976 2.14059 9.83268 2.15088C9.81831 2.15948 9.80372 2.16774 9.78981 2.1769C9.7751 2.18663 9.76108 2.19737 9.74682 2.20778C9.73144 2.21909 9.71583 2.23007 9.70101 2.24206C9.68936 2.25156 9.6785 2.26174 9.66718 2.27169C9.6509 2.28606 9.63449 2.3002 9.61911 2.31547C9.60994 2.32452 9.60157 2.33414 9.59275 2.34353C9.57646 2.36072 9.56017 2.37792 9.54501 2.39613C9.53732 2.4054 9.53031 2.41525 9.52295 2.42463C9.50802 2.44375 9.49309 2.46276 9.4794 2.48289C9.47171 2.49409 9.46504 2.50597 9.4578 2.51739C9.44581 2.5364 9.43359 2.55529 9.42262 2.5752C9.41379 2.59126 9.40621 2.608 9.39818 2.62452C9.39038 2.64058 9.38201 2.65631 9.37488 2.67282C9.36447 2.69692 9.35565 2.72192 9.34694 2.74692C9.34354 2.75676 9.33936 2.76615 9.33619 2.7761C9.3259 2.80823 9.31753 2.84115 9.31006 2.8744C9.30927 2.87802 9.30791 2.88153 9.30723 2.88526L9.30678 2.8873C9.30622 2.89013 9.30554 2.89284 9.30497 2.89567L2.83784 33.3835C2.83693 33.3879 2.83591 33.3923 2.83501 33.3968L0.0248515 46.6446C-0.104785 47.2558 0.285596 47.8562 0.896676 47.9859C0.975861 48.0026 1.05471 48.0108 1.13253 48.0108C1.65538 48.0108 2.12517 47.6461 2.23795 47.1141L4.86055 34.7502H15.9666L18.5892 47.1141C18.7019 47.6461 19.1716 48.0108 19.6946 48.0108C19.7724 48.0108 19.8514 48.0027 19.9304 47.9859C20.5415 47.8562 20.932 47.2557 20.8023 46.6446L18.2792 34.7502H31.7204L29.1973 46.6446C29.0677 47.2558 29.4581 47.8562 30.0691 47.9859C30.1483 48.0026 30.2272 48.0108 30.305 48.0108C30.8279 48.0108 31.2976 47.6461 31.4104 47.1141L40.6929 3.35517C40.7015 3.31456 40.7075 3.27406 40.7116 3.23379ZM11.3301 4.25165H38.19L32.2005 32.4879H5.34053L11.3301 4.25165Z" fill="#202220"/>
<path d="M29.7656 9.94543H16.8592C16.2346 9.94543 15.728 10.4519 15.728 11.0766C15.728 11.7014 16.2346 12.2079 16.8592 12.2079H29.7656C30.3902 12.2079 30.8968 11.7014 30.8968 11.0766C30.8968 10.4519 30.3902 9.94543 29.7656 9.94543Z" fill="#202220"/>
<path d="M28.7343 14.8075H15.828C15.2033 14.8075 14.6968 15.3139 14.6968 15.9387C14.6968 16.5635 15.2033 17.0699 15.828 17.0699H28.7343C29.359 17.0699 29.8655 16.5635 29.8655 15.9387C29.8655 15.3139 29.359 14.8075 28.7343 14.8075Z" fill="#202220"/>
<path d="M27.7026 19.6696H14.7963C14.1716 19.6696 13.665 20.176 13.665 20.8008C13.665 21.4255 14.1716 21.932 14.7963 21.932H27.7026C28.3272 21.932 28.8338 21.4255 28.8338 20.8008C28.8338 20.176 28.3272 19.6696 27.7026 19.6696Z" fill="#202220"/>
<path d="M26.6712 24.5316H13.765C13.1403 24.5316 12.6338 25.0381 12.6338 25.6628C12.6338 26.2876 13.1403 26.794 13.765 26.794H26.6713C27.296 26.794 27.8025 26.2876 27.8025 25.6628C27.8025 25.0381 27.296 24.5316 26.6712 24.5316Z" fill="#202220"/>
</g>
<defs>
<clipPath id="clip0_240_189">
<rect width="50" height="50" fill="white"/>
</clipPath>
</defs>
</svg>
