<svg width="60" height="60" viewBox="0 0 60 60" fill="none" xmlns="http://www.w3.org/2000/svg">
<g clip-path="url(#clip0_321_2029)">
<path d="M43.1218 60C41.185 60 39.2646 59.6576 37.3867 58.9754C29.1139 55.9701 21.4349 51.0754 15.1797 44.8203C8.92447 38.5652 4.02974 30.8861 1.02459 22.6132C0.0588917 19.9546 -0.226097 17.2102 0.177832 14.4559C0.556215 11.876 1.55555 9.37145 3.06791 7.21295C4.58695 5.04495 6.6121 3.24174 8.92435 1.99832C11.3901 0.672394 14.0814 0 16.9238 0C17.8079 0 18.5719 0.61767 18.7571 1.48201L21.7001 15.2157C21.8333 15.8376 21.6422 16.4847 21.1926 16.9344L16.1639 21.963C20.9077 31.3945 28.6052 39.092 38.0367 43.8358L43.0653 38.8072C43.5149 38.3575 44.1621 38.1666 44.784 38.2996L58.5177 41.2426C59.3822 41.4278 59.9997 42.1919 59.9997 43.0759C59.9997 45.9183 59.3273 48.6097 58.0013 51.0755C56.7579 53.3877 54.9546 55.4129 52.7867 56.9319C50.6283 58.4443 48.1237 59.4436 45.5437 59.822C44.7353 59.9407 43.9269 59.9999 43.1218 60ZM15.4258 3.83187C11.6765 4.24576 8.34875 6.21092 6.13892 9.36489C3.65394 12.9114 3.07447 17.2736 4.5491 21.333C10.3267 37.2377 22.7622 49.6733 38.667 55.4509C42.7263 56.9255 47.0885 56.3461 50.6351 53.861C53.789 51.6512 55.7542 48.3234 56.1681 44.5742L44.9958 42.1801L39.7441 47.4318C39.1853 47.9907 38.3362 48.1391 37.6211 47.803C26.4665 42.5626 17.4373 33.5335 12.1969 22.3788C11.8609 21.6637 12.0093 20.8146 12.5681 20.2558L17.8198 15.0042L15.4258 3.83187Z" fill="#60AC45"/>
<path d="M58.1238 31.8737C57.0883 31.8737 56.2488 31.0342 56.2488 29.9988C56.2488 15.5251 44.4736 3.74985 29.9999 3.74985C28.9645 3.74985 28.125 2.91035 28.125 1.87492C28.125 0.839497 28.9645 0 29.9999 0C38.013 0 45.5463 3.12034 51.2123 8.78636C56.8783 14.4524 59.9987 21.9857 59.9987 29.9988C59.9987 31.0342 59.1593 31.8737 58.1238 31.8737Z" fill="#60AC45"/>
<path d="M50.6241 31.874C49.5886 31.874 48.7492 31.0345 48.7492 29.9991C48.7492 19.6608 40.3382 11.2498 29.9999 11.2498C28.9645 11.2498 28.125 10.4103 28.125 9.37492C28.125 8.3395 28.9645 7.5 29.9999 7.5C42.4059 7.5 52.499 17.5931 52.499 29.9991C52.499 31.0345 51.6596 31.874 50.6241 31.874Z" fill="#60AC45"/>
<path d="M43.1244 31.8733C42.089 31.8733 41.2495 31.0338 41.2495 29.9984C41.2495 23.7953 36.203 18.7489 29.9999 18.7489C28.9645 18.7489 28.125 17.9094 28.125 16.8739C28.125 15.8385 28.9645 14.999 29.9999 14.999C38.2707 14.999 44.9993 21.7277 44.9993 29.9984C44.9993 31.0338 44.1599 31.8733 43.1244 31.8733Z" fill="#60AC45"/>
</g>
<defs>
<clipPath id="clip0_321_2029">
<rect width="60" height="60" fill="white"/>
</clipPath>
</defs>
</svg>
