<svg width="54" height="40" viewBox="0 0 54 40" fill="none" xmlns="http://www.w3.org/2000/svg">
<path d="M46.9981 39.375H6.99805C5.17671 39.3684 3.43185 38.642 2.14397 37.3541C0.856078 36.0662 0.129634 34.3213 0.123047 32.5V7.5C0.129634 5.67866 0.856078 3.93381 2.14397 2.64592C3.43185 1.35803 5.17671 0.631587 6.99805 0.625H46.9981C48.8194 0.631587 50.5642 1.35803 51.8521 2.64592C53.14 3.93381 53.8665 5.67866 53.8731 7.5V32.5C53.8665 34.3213 53.14 36.0662 51.8521 37.3541C50.5642 38.642 48.8194 39.3684 46.9981 39.375ZM6.99805 4.375C6.16925 4.375 5.37439 4.70424 4.78834 5.29029C4.20229 5.87634 3.87305 6.6712 3.87305 7.5V32.5C3.87305 33.3288 4.20229 34.1237 4.78834 34.7097C5.37439 35.2958 6.16925 35.625 6.99805 35.625H46.9981C47.8269 35.625 48.6217 35.2958 49.2078 34.7097C49.7938 34.1237 50.1231 33.3288 50.1231 32.5V7.5C50.1231 6.6712 49.7938 5.87634 49.2078 5.29029C48.6217 4.70424 47.8269 4.375 46.9981 4.375H6.99805Z" fill="#60AC45"/>
<path d="M26.9974 23.3749C25.5466 23.3749 24.1223 22.9865 22.8724 22.2499L1.04738 9.27493C0.639615 9.02079 0.343276 8.6216 0.218032 8.15773C0.092787 7.69386 0.147938 7.19977 0.372382 6.77493C0.621994 6.36193 1.02311 6.0628 1.49015 5.94137C1.9572 5.81994 2.45322 5.88581 2.87238 6.12493L24.7224 19.0749C25.385 19.4791 26.1462 19.6929 26.9224 19.6929C27.6986 19.6929 28.4597 19.4791 29.1224 19.0749L50.9724 6.12493C51.3915 5.88581 51.8876 5.81994 52.3546 5.94137C52.8217 6.0628 53.2228 6.36193 53.4724 6.77493C53.6968 7.19977 53.752 7.69386 53.6267 8.15773C53.5015 8.6216 53.2051 9.02079 52.7974 9.27493L31.1224 22.2499C29.8725 22.9865 28.4482 23.3749 26.9974 23.3749Z" fill="#60AC45"/>
</svg>
