<svg width="48" height="58" viewBox="0 0 48 58" fill="none" xmlns="http://www.w3.org/2000/svg">
<path d="M0.533203 24.2666C0.533203 36.9633 22.285 56.0956 23.2107 56.9039C23.4294 57.0947 23.7098 57.1998 24 57.1998C24.2902 57.1998 24.5706 57.0947 24.7893 56.9039C25.7151 56.0956 47.4668 36.9633 47.4668 24.2666C47.4668 18.0428 44.9944 12.0739 40.5935 7.67307C36.1927 3.27219 30.2238 0.799805 24 0.799805C17.7762 0.799805 11.8073 3.27219 7.40647 7.67307C3.00559 12.0739 0.533203 18.0428 0.533203 24.2666ZM24 3.1998C29.5853 3.20614 34.9401 5.42771 38.8895 9.37712C42.8389 13.3265 45.0605 18.6813 45.0668 24.2666C45.0668 34.6037 27.9182 50.8178 24 54.387C20.0818 50.8178 2.9332 34.6037 2.9332 24.2666C2.93954 18.6813 5.16111 13.3265 9.11052 9.37712C13.0599 5.42771 18.4147 3.20614 24 3.1998Z" fill="#60AC45"/>
<path d="M23.9977 37.8661C26.7402 37.8661 29.4212 37.0528 31.7015 35.5291C33.9818 34.0054 35.7591 31.8397 36.8087 29.3059C37.8582 26.7722 38.1328 23.984 37.5977 21.2942C37.0627 18.6043 35.742 16.1335 33.8027 14.1943C31.8634 12.255 29.3927 10.9343 26.7028 10.3993C24.0129 9.86422 21.2248 10.1388 18.691 11.1883C16.1572 12.2378 13.9916 14.0151 12.4679 16.2955C10.9442 18.5758 10.1309 21.2568 10.1309 23.9993C10.1351 27.6757 11.5974 31.2004 14.197 33.8C16.7966 36.3996 20.3212 37.8619 23.9977 37.8661ZM23.9977 12.5328C26.2655 12.5329 28.4825 13.2054 30.3682 14.4654C32.2538 15.7254 33.7235 17.5162 34.5914 19.6115C35.4592 21.7068 35.6863 24.0123 35.2438 26.2367C34.8013 28.461 33.7092 30.5041 32.1056 32.1077C30.5019 33.7114 28.4587 34.8034 26.2344 35.2458C24.0101 35.6882 21.7045 35.4611 19.6093 34.5932C17.514 33.7253 15.7232 32.2556 14.4633 30.3699C13.2033 28.4842 12.5308 26.2672 12.5309 23.9993C12.5343 20.9592 13.7436 18.0447 15.8933 15.895C18.043 13.7454 20.9576 12.5362 23.9977 12.5328Z" fill="#60AC45"/>
</svg>
