<svg width="30" height="30" viewBox="0 0 30 30" fill="none" xmlns="http://www.w3.org/2000/svg">
<g clip-path="url(#clip0_4036_170)">
<path d="M18.9645 3.9645C18.5002 3.50019 17.949 3.13188 17.3423 2.8806C16.7357 2.62932 16.0855 2.49999 15.4289 2.5H14.5711C13.9145 2.49999 13.2643 2.62932 12.6577 2.8806C12.051 3.13188 11.4998 3.50019 11.0355 3.9645L2.7145 12.2855C2.25019 12.7498 1.88188 13.301 1.6306 13.9077C1.37932 14.5143 1.24999 15.1645 1.25 15.8211V22.5C1.25 23.8261 1.77678 25.0979 2.71447 26.0355C3.65215 26.9732 4.92392 27.5 6.25 27.5H23.75C25.0761 27.5 26.3479 26.9732 27.2855 26.0355C28.2232 25.0979 28.75 23.8261 28.75 22.5V15.8211C28.75 15.1645 28.6207 14.5143 28.3694 13.9077C28.1181 13.301 27.7498 12.7498 27.2855 12.2855L18.9645 3.9645Z" fill="url(#paint0_linear_4036_170)"/>
<path d="M28.1695 11.402L26.25 9.4824V3.75002C26.25 3.4185 26.1183 3.10056 25.8839 2.86614C25.6495 2.63172 25.3315 2.50002 25 2.50002C24.6685 2.50002 24.3506 2.63172 24.1161 2.86614C23.8817 3.10056 23.75 3.4185 23.75 3.75002V6.9824L19.848 3.08052C19.2691 2.49836 18.5805 2.03681 17.822 1.7226C17.0635 1.40839 16.2502 1.24777 15.4292 1.25002H14.5709C13.7499 1.24777 12.9366 1.40839 12.1781 1.7226C11.4196 2.03681 10.7309 2.49836 10.152 3.08052L1.83052 11.402C1.24836 11.9809 0.78681 12.6696 0.472602 13.4281C0.158394 14.1866 -0.00223178 14.9999 2.34216e-05 15.8209V22.5C0.00197523 24.157 0.661082 25.7456 1.83276 26.9173C3.00444 28.089 4.59302 28.7481 6.25002 28.75H23.75C25.407 28.7481 26.9956 28.089 28.1673 26.9173C29.339 25.7456 29.9981 24.157 30 22.5V15.8209C30.0023 14.9999 29.8417 14.1866 29.5274 13.4281C29.2132 12.6696 28.7517 11.9809 28.1695 11.402ZM27.5 22.5C27.4989 23.4943 27.1035 24.4474 26.4005 25.1505C25.6974 25.8535 24.7443 26.2489 23.75 26.25H6.25002C5.2558 26.2489 4.3026 25.8535 3.59958 25.1505C2.89655 24.4474 2.50112 23.4943 2.50002 22.5V15.8209C2.50301 14.8271 2.89751 13.8745 3.59802 13.1695L11.9195 4.84802C12.6245 4.14751 13.5771 3.75301 14.5709 3.75002H15.4292C16.423 3.75301 17.3756 4.14751 18.0805 4.84802L26.402 13.1695C27.1025 13.8745 27.497 14.8271 27.5 15.8209V22.5Z" fill="#202220"/>
<path d="M16.25 18.75H13.75C12.4244 18.7515 11.1535 19.2788 10.2161 20.2161C9.27875 21.1535 8.75149 22.4244 8.75 23.75C8.75 24.0815 8.8817 24.3995 9.11612 24.6339C9.35054 24.8683 9.66848 25 10 25C10.3315 25 10.6495 24.8683 10.8839 24.6339C11.1183 24.3995 11.25 24.0815 11.25 23.75C11.2507 23.0872 11.5143 22.4517 11.983 21.983C12.4517 21.5143 13.0872 21.2507 13.75 21.25H16.25C16.9128 21.2507 17.5483 21.5143 18.017 21.983C18.4857 22.4517 18.7493 23.0872 18.75 23.75C18.75 24.0815 18.8817 24.3995 19.1161 24.6339C19.3505 24.8683 19.6685 25 20 25C20.3315 25 20.6495 24.8683 20.8839 24.6339C21.1183 24.3995 21.25 24.0815 21.25 23.75C21.2485 22.4244 20.7212 21.1535 19.7839 20.2161C18.8465 19.2788 17.5756 18.7515 16.25 18.75Z" fill="#202220"/>
</g>
<defs>
<linearGradient id="paint0_linear_4036_170" x1="24.58" y1="28.7412" x2="5.42" y2="9.58" gradientUnits="userSpaceOnUse">
<stop stop-color="#60EFFF"/>
<stop offset="0.1168" stop-color="#5FF1F2"/>
<stop offset="0.5033" stop-color="#5EF6CA"/>
<stop offset="0.8112" stop-color="#5CF9B2"/>
<stop offset="1" stop-color="#5CFAA9"/>
</linearGradient>
<clipPath id="clip0_4036_170">
<rect width="30" height="30" fill="white"/>
</clipPath>
</defs>
</svg>
