<svg width="157" height="46" viewBox="0 0 157 46" fill="none" xmlns="http://www.w3.org/2000/svg">
<g clip-path="url(#clip0_165_11)">
<path d="M28.1695 19.402L26.25 17.4824V11.75C26.25 11.4185 26.1183 11.1006 25.8839 10.8661C25.6495 10.6317 25.3315 10.5 25 10.5C24.6685 10.5 24.3506 10.6317 24.1161 10.8661C23.8817 11.1006 23.75 11.4185 23.75 11.75V14.9824L19.848 11.0805C19.2691 10.4984 18.5805 10.0368 17.822 9.7226C17.0635 9.40839 16.2502 9.24777 15.4292 9.25002H14.5709C13.7499 9.24777 12.9366 9.40839 12.1781 9.7226C11.4196 10.0368 10.7309 10.4984 10.152 11.0805L1.83052 19.402C1.24836 19.9809 0.78681 20.6696 0.472602 21.4281C0.158394 22.1866 -0.00223178 22.9999 2.34216e-05 23.8209V30.5C0.00197523 32.157 0.661082 33.7456 1.83276 34.9173C3.00444 36.089 4.59302 36.7481 6.25002 36.75H23.75C25.407 36.7481 26.9956 36.089 28.1673 34.9173C29.339 33.7456 29.9981 32.157 30 30.5V23.8209C30.0023 22.9999 29.8417 22.1866 29.5274 21.4281C29.2132 20.6696 28.7517 19.9809 28.1695 19.402ZM27.5 30.5C27.4989 31.4943 27.1035 32.4474 26.4005 33.1505C25.6974 33.8535 24.7443 34.2489 23.75 34.25H6.25002C5.2558 34.2489 4.3026 33.8535 3.59958 33.1505C2.89655 32.4474 2.50112 31.4943 2.50002 30.5V23.8209C2.50301 22.8271 2.89751 21.8745 3.59802 21.1695L11.9195 12.848C12.6245 12.1475 13.5771 11.753 14.5709 11.75H15.4292C16.423 11.753 17.3756 12.1475 18.0805 12.848L26.402 21.1695C27.1025 21.8745 27.497 22.8271 27.5 23.8209V30.5Z" fill="#60AC45"/>
<path d="M16.25 26.75H13.75C12.4244 26.7515 11.1535 27.2788 10.2161 28.2161C9.27875 29.1535 8.75149 30.4244 8.75 31.75C8.75 32.0815 8.8817 32.3995 9.11612 32.6339C9.35054 32.8683 9.66848 33 10 33C10.3315 33 10.6495 32.8683 10.8839 32.6339C11.1183 32.3995 11.25 32.0815 11.25 31.75C11.2507 31.0872 11.5143 30.4517 11.983 29.983C12.4517 29.5143 13.0872 29.2507 13.75 29.25H16.25C16.9128 29.2507 17.5483 29.5143 18.017 29.983C18.4857 30.4517 18.7493 31.0872 18.75 31.75C18.75 32.0815 18.8817 32.3995 19.1161 32.6339C19.3505 32.8683 19.6685 33 20 33C20.3315 33 20.6495 32.8683 20.8839 32.6339C21.1183 32.3995 21.25 32.0815 21.25 31.75C21.2485 30.4244 20.7212 29.1535 19.7839 28.2161C18.8465 27.2788 17.5756 26.7515 16.25 26.75Z" fill="#60AC45"/>
</g>
<path d="M61.204 10.8H65.38V37.26L46.984 19.08V36H42.808V9.54L61.204 27.72V10.8ZM77.8442 36.36C76.1642 36.36 74.6762 36 73.3802 35.28C72.1082 34.56 71.1242 33.552 70.4282 32.256C69.7322 30.96 69.3842 29.448 69.3842 27.72C69.3842 25.968 69.7322 24.444 70.4282 23.148C71.1482 21.852 72.1562 20.856 73.4522 20.16C74.7482 19.44 76.2722 19.08 78.0242 19.08C79.7762 19.08 81.2642 19.416 82.4882 20.088C83.7122 20.76 84.6482 21.732 85.2962 23.004C85.9682 24.252 86.3042 25.764 86.3042 27.54C86.3042 27.732 86.2922 27.936 86.2682 28.152C86.2682 28.368 86.2562 28.524 86.2322 28.62H71.6882V25.956H82.9202L81.7322 27.612C81.8042 27.468 81.8762 27.276 81.9482 27.036C82.0442 26.772 82.0922 26.556 82.0922 26.388C82.0922 25.5 81.9122 24.732 81.5522 24.084C81.2162 23.436 80.7362 22.932 80.1122 22.572C79.5122 22.212 78.8042 22.032 77.9882 22.032C77.0042 22.032 76.1642 22.248 75.4682 22.68C74.7722 23.112 74.2442 23.736 73.8842 24.552C73.5242 25.368 73.3322 26.376 73.3082 27.576C73.3082 28.776 73.4882 29.796 73.8482 30.636C74.2082 31.452 74.7362 32.076 75.4322 32.508C76.1522 32.94 77.0162 33.156 78.0242 33.156C79.0802 33.156 80.0042 32.94 80.7962 32.508C81.5882 32.076 82.2482 31.416 82.7762 30.528L86.1242 31.896C85.2602 33.384 84.1442 34.5 82.7762 35.244C81.4082 35.988 79.7642 36.36 77.8442 36.36ZM99.0279 19.44H103.384L97.4439 27.468L103.744 36H99.3879L95.3919 30.312L91.4679 36H87.0039L93.3399 27.468L87.3639 19.44H91.8279L95.3919 24.624L99.0279 19.44ZM108.67 30.852C108.67 31.404 108.802 31.884 109.066 32.292C109.33 32.676 109.69 32.964 110.146 33.156C110.626 33.348 111.166 33.444 111.766 33.444C112.534 33.444 113.23 33.288 113.854 32.976C114.502 32.664 115.018 32.208 115.402 31.608C115.81 30.984 116.014 30.264 116.014 29.448L116.59 31.608C116.59 32.664 116.278 33.552 115.654 34.272C115.054 34.968 114.286 35.496 113.35 35.856C112.438 36.192 111.502 36.36 110.542 36.36C109.51 36.36 108.55 36.156 107.662 35.748C106.774 35.34 106.066 34.74 105.538 33.948C105.01 33.156 104.746 32.196 104.746 31.068C104.746 29.46 105.31 28.188 106.438 27.252C107.566 26.292 109.162 25.812 111.226 25.812C112.33 25.812 113.278 25.932 114.07 26.172C114.886 26.412 115.558 26.7 116.086 27.036C116.614 27.348 116.986 27.636 117.202 27.9V29.88C116.458 29.352 115.666 28.968 114.826 28.728C113.986 28.488 113.098 28.368 112.162 28.368C111.346 28.368 110.686 28.476 110.182 28.692C109.678 28.884 109.294 29.16 109.03 29.52C108.79 29.88 108.67 30.324 108.67 30.852ZM107.446 23.76L105.862 21.024C106.606 20.568 107.566 20.124 108.742 19.692C109.942 19.26 111.31 19.044 112.846 19.044C114.214 19.044 115.414 19.248 116.446 19.656C117.502 20.064 118.33 20.652 118.93 21.42C119.53 22.164 119.83 23.088 119.83 24.192V36H116.014V24.948C116.014 24.42 115.918 23.988 115.726 23.652C115.558 23.316 115.318 23.04 115.006 22.824C114.694 22.608 114.322 22.452 113.89 22.356C113.458 22.26 112.99 22.212 112.486 22.212C111.718 22.212 110.986 22.308 110.29 22.5C109.618 22.668 109.03 22.884 108.526 23.148C108.046 23.388 107.686 23.592 107.446 23.76ZM121.667 19.44H125.915L130.235 30.132L134.555 19.44H138.839L130.235 37.512L121.667 19.44ZM143.721 30.852C143.721 31.404 143.853 31.884 144.117 32.292C144.381 32.676 144.741 32.964 145.197 33.156C145.677 33.348 146.217 33.444 146.817 33.444C147.585 33.444 148.281 33.288 148.905 32.976C149.553 32.664 150.069 32.208 150.453 31.608C150.861 30.984 151.065 30.264 151.065 29.448L151.641 31.608C151.641 32.664 151.329 33.552 150.705 34.272C150.105 34.968 149.337 35.496 148.401 35.856C147.489 36.192 146.553 36.36 145.593 36.36C144.561 36.36 143.601 36.156 142.713 35.748C141.825 35.34 141.117 34.74 140.589 33.948C140.061 33.156 139.797 32.196 139.797 31.068C139.797 29.46 140.361 28.188 141.489 27.252C142.617 26.292 144.213 25.812 146.277 25.812C147.381 25.812 148.329 25.932 149.121 26.172C149.937 26.412 150.609 26.7 151.137 27.036C151.665 27.348 152.037 27.636 152.253 27.9V29.88C151.509 29.352 150.717 28.968 149.877 28.728C149.037 28.488 148.149 28.368 147.213 28.368C146.397 28.368 145.737 28.476 145.233 28.692C144.729 28.884 144.345 29.16 144.081 29.52C143.841 29.88 143.721 30.324 143.721 30.852ZM142.497 23.76L140.913 21.024C141.657 20.568 142.617 20.124 143.793 19.692C144.993 19.26 146.361 19.044 147.897 19.044C149.265 19.044 150.465 19.248 151.497 19.656C152.553 20.064 153.381 20.652 153.981 21.42C154.581 22.164 154.881 23.088 154.881 24.192V36H151.065V24.948C151.065 24.42 150.969 23.988 150.777 23.652C150.609 23.316 150.369 23.04 150.057 22.824C149.745 22.608 149.373 22.452 148.941 22.356C148.509 22.26 148.041 22.212 147.537 22.212C146.769 22.212 146.037 22.308 145.341 22.5C144.669 22.668 144.081 22.884 143.577 23.148C143.097 23.388 142.737 23.592 142.497 23.76Z" fill="white"/>
<defs>
<clipPath id="clip0_165_11">
<rect width="30" height="30" fill="white" transform="translate(0 8)"/>
</clipPath>
</defs>
</svg>
